<svg xmlns="http://www.w3.org/2000/svg" width="132" height="22" viewBox="0 0 132 22">
    <path fill="#32AF96" fill-rule="nonzero" d="M122.94 0v3.074h6.012v15.851h-6.012V22H132V0h-9.06zM9.06 0v3.074H3.047v15.851h6.011V22H0V0h9.06zm98.973 5.79h7.922v2.074h-5.627v2.15h4.952v2.074h-4.952v2.226h5.703v2.073h-7.998V5.791zm-13.027 0h2.49l2.761 4.482 2.761-4.481h2.491v10.596h-2.295V9.47l-2.957 4.526h-.06l-2.926-4.48v6.872h-2.265V5.791zm-4.475 5.33v-.031c0-1.816-1.32-3.33-3.18-3.33-1.861 0-3.152 1.483-3.152 3.3v.03c0 1.817 1.32 3.33 3.181 3.33s3.151-1.483 3.151-3.3zm-8.748 0v-.031c0-3.013 2.356-5.48 5.597-5.48 3.241 0 5.567 2.437 5.567 5.45v.03c0 3.013-2.356 5.48-5.597 5.48-3.24 0-5.567-2.437-5.567-5.45zm-10.94-5.33h2.31v4.194h4.262V5.791h2.31v10.596h-2.31v-4.253h-4.262v4.253h-2.31V5.791zm-5.19 6.722l-2.385-5.404-2.401 5.404h4.786zm-2.926-6.797h1.11l4.787 10.672H67.35l-1.23-2.8H60.4l-1.245 2.8H57.94l4.786-10.672zM51.707 7.94H48.51V5.79h8.704v2.15h-3.196v8.448h-2.311V7.94zm-6.47 3.18v-.031c0-1.816-1.32-3.33-3.18-3.33-1.862 0-3.152 1.483-3.152 3.3v.03c0 1.817 1.32 3.33 3.181 3.33 1.86 0 3.151-1.483 3.151-3.3zm-8.748 0v-.031c0-3.013 2.356-5.48 5.597-5.48 3.241 0 5.567 2.437 5.567 5.45v.03c0 3.013-2.356 5.48-5.597 5.48-3.241 0-5.567-2.437-5.567-5.45zm-5.419.014c1.156 0 1.83-.696 1.83-1.604V9.5c0-1.045-.72-1.605-1.875-1.605H29.24v3.24h1.83zM26.93 5.79h4.291c2.506 0 4.022 1.5 4.022 3.664v.03c0 2.453-1.89 3.724-4.247 3.724H29.24v3.18h-2.311V5.79zm-10.326 9.054l1.366-1.65c.945.786 1.936 1.286 3.136 1.286.945 0 1.515-.378 1.515-.999v-.03c0-.591-.36-.894-2.115-1.348-2.116-.545-3.482-1.135-3.482-3.24v-.03c0-1.922 1.531-3.194 3.677-3.194 1.53 0 2.836.485 3.901 1.348l-1.2 1.755c-.93-.65-1.846-1.044-2.731-1.044-.886 0-1.35.409-1.35.923v.03c0 .697.45.924 2.265 1.393 2.131.56 3.332 1.333 3.332 3.18v.03c0 2.104-1.591 3.285-3.857 3.285-1.59 0-3.196-.56-4.457-1.695z"/>
</svg>
