<svg xmlns="http://www.w3.org/2000/svg" width="86" height="401" viewBox="0 0 86 401">
    <g fill="none" fill-rule="evenodd">
        <path stroke="#E78BA2" stroke-linecap="round" stroke-width="12" d="M79.5 301.718V319"/>
        <path stroke="#B9E1E6" stroke-linecap="round" stroke-width="12" d="M6.5 99.696V333"/>
        <path stroke="#36B397" stroke-linecap="round" stroke-width="12" d="M79.5 333.72V360"/>
        <path stroke="#F06D30" stroke-linecap="round" stroke-width="12" d="M79.5 21v223.773"/>
        <g fill="#C4C2BB" font-family="AndaleMono, Andale Mono" font-size="12">
            <text transform="translate(25 13)">
                <tspan x="0" y="11.485">2007</tspan>
            </text>
            <text transform="translate(25 13)">
                <tspan x="0" y="90.913">2012</tspan>
            </text>
            <text transform="translate(25 13)">
                <tspan x="0" y="131.274">2013</tspan>
            </text>
            <text transform="translate(25 13)">
                <tspan x="0" y="171.635">2014</tspan>
            </text>
            <text transform="translate(25 13)">
                <tspan x="0" y="211.995">2015</tspan>
            </text>
            <text transform="translate(25 13)">
                <tspan x="0" y="252.356">2016</tspan>
            </text>
            <text transform="translate(25 13)">
                <tspan x="0" y="291.415">2017</tspan>
            </text>
            <text transform="translate(25 13)">
                <tspan x="0" y="330.474">2018</tspan>
            </text>
            <text transform="translate(25 13)">
                <tspan x="0" y="370.834">2019</tspan>
            </text>
        </g>
        <g stroke="#C4C2BB" stroke-linecap="square">
            <path d="M52.5 1.135h15M54 81.571h11M54 121.433h11M54 161.295h11M54 201.157h11M54 241.019h11M54 280.881h11M54 320.743h11M54 360.605h11M54 400.467h11M54 41.71h11M59.5 1.135v40.136"/>
            <path stroke-dasharray="1,3" d="M59.5 41.25v40.3"/>
            <path d="M59.5 80.25v319.8"/>
        </g>
    </g>
</svg>
